<svg xmlns="http://www.w3.org/2000/svg" width="358" height="104.942" viewBox="-18 -10 358 104.942" xmlns:v="https://vecta.io/nano"><path d="M64.294 73.804c-4.9 0-7.238-3.452-9.354-6.459-1.893-2.784-3.563-5.122-6.793-5.122s-4.9 2.339-6.793 5.122c-2.116 3.007-4.566 6.459-9.354 6.459s-7.238-3.452-9.354-6.459c-1.893-2.784-3.563-5.122-6.793-5.122s-4.9 2.339-6.793 5.122c-2.116 3.007-4.454 6.459-9.354 6.459s-7.238-3.452-9.354-6.459c-1.893-2.784-3.563-5.122-6.793-5.122A1.52 1.52 0 0 1-18 60.664a1.52 1.52 0 0 1 1.559-1.559c4.9 0 7.238 3.452 9.354 6.459 1.893 2.784 3.563 5.122 6.793 5.122s4.9-2.339 6.793-5.122c2.116-3.007 4.454-6.459 9.354-6.459s7.238 3.452 9.354 6.459C27.1 68.348 28.77 70.686 32 70.686s4.9-2.339 6.793-5.122c2.116-3.007 4.566-6.459 9.354-6.459 4.9 0 7.238 3.452 9.354 6.459 1.893 2.784 3.563 5.122 6.793 5.122s4.9-2.339 6.793-5.122c2.116-3.007 4.566-6.459 9.354-6.459A1.52 1.52 0 0 1 82 60.664a1.52 1.52 0 0 1-1.559 1.559c-3.229 0-4.9 2.339-6.793 5.122-2.116 3.007-4.454 6.459-9.354 6.459zm-9.243 4.009c-2.004-2.673-4.232-5.568-8.686-5.568-4.566 0-6.793 3.007-8.686 5.568-1.782 2.339-3.341 4.454-6.236 4.454-3.007 0-4.454-2.004-6.236-4.454-2.004-2.673-4.232-5.568-8.686-5.568-4.566 0-6.682 3.007-8.686 5.568-1.782 2.339-3.341 4.454-6.236 4.454h-.111S-.071 82.156.04 83.604c0 1.336 1.448 1.336 1.448 1.336h.111c4.566 0 6.682-3.007 8.686-5.568 1.782-2.339 3.341-4.454 6.236-4.454 3.007 0 4.454 2.004 6.236 4.454 2.004 2.673 4.232 5.568 8.686 5.568s6.793-3.007 8.686-5.568c1.782-2.339 3.341-4.454 6.236-4.454s4.454 2.004 6.236 4.454c1.893 2.561 4.009 5.345 8.129 5.568 0 0 1.782.111 1.67-1.448 0-1.336-1.559-1.336-1.559-1.336-2.673-.223-4.12-2.116-5.791-4.343zM38.459-5.595c-4.454-5.568-8.352-6.013-12.806-.445C11.955 11.443-1.074 39.951-8.869 58.102c2.45 1.782 4.12 4.12 5.457 6.013 1.782 2.45 2.45 3.229 3.229 3.229s1.448-.78 3.229-3.229c2.339-3.341 5.791-8.352 12.918-8.352s10.579 5.011 12.918 8.352c1.782 2.45 2.45 3.229 3.229 3.229s1.448-.78 3.229-3.229c2.339-3.341 5.791-8.352 12.918-8.352s10.579 5.011 12.918 8.352c1.782 2.45 2.45 3.229 3.229 3.229s1.448-.78 3.229-3.229c1.336-1.893 3.007-4.343 5.568-6.013-7.906-18.151-21.047-46.548-34.744-63.697zm19.042 56.682c-.557-.668-1.114-1.336-1.782-1.893-.445-1.559-.891-2.673-1.002-3.786-.111-.557-.445-.557-.891-.111l-.891.891c-.111-1.225-.111-2.339-.223-3.229-.111-.557-.445-.557-.891-.111-.445.334-1.002.891-1.67 1.67-.223-1.67-.223-3.007-.334-4.12-.111-.557-.445-.557-.891-.111-.557.445-1.336 1.336-2.227 2.339-.334-1.893-.223-3.452-.445-4.677-.111-.557-.445-.557-.891-.111-.668.557-3.007 3.007-3.007 3.007-.557-2.227-.334-3.786-.557-5.122-.111-.557-.445-.557-.891-.111-.668.668-1.893 1.782-3.007 3.229-.445-2.004-.334-3.563-.445-4.788-.111-.557-.445-.557-.891-.111-.78.668-2.339 2.227-3.675 3.898-1.225-1.559-2.673-3.007-3.452-3.675-.445-.334-.78-.445-.891.111-.111 1.225 0 2.673-.445 4.677-1.225-1.559-2.673-3.007-3.452-3.675-.445-.334-.78-.445-.891.111-.111 1.336 0 3.007-.557 5.122 0 0-2.339-2.45-3.007-3.007-.445-.334-.78-.445-.891.111-.111 1.225 0 2.673-.445 4.566l-2.227-2.227c-.445-.334-.78-.445-.891.111-.111 1.114 0 2.339-.334 4.009l-1.559-1.559c-.445-.334-.78-.445-.891.111-.111.891-.111 2.004-.223 3.229l-.891-.891c-.445-.334-.78-.445-.891.111-.111.668-.78 2.116-1.559 3.898-.668.668-1.336 1.336-2.004 2.116-.891 1.002-2.339-.111-1.893-1.559l1.559-4.232 1.448.891c.445.223.78.223.668-.223-.111-1.002-.557-2.227-.557-4.009.668.445 1.336.78 1.67 1.002.445.223.78.223.668-.223-.111-1.114-.668-2.561-.557-4.677.891.557 1.67 1.002 2.116 1.336.445.223.78.223.668-.223-.223-1.336-.891-3.118-.445-6.013a37.18 37.18 0 0 0 3.563 2.339c.445.223.78.223.78-.334-.223-1.559-1.002-3.563-.445-7.016 1.67 1.225 3.341 2.227 4.232 2.784.445.223.891.223.78-.334-.223-1.67-1.114-3.786-.668-7.127 1.336 1.782 3.007 3.452 3.898 4.232.445.334.78.445.891-.111.111-1.448 0-3.452.78-6.125 1.336 1.782 3.007 3.563 3.898 4.343.445.334.78.445.891-.111.223-1.782-.223-4.343 1.559-8.129 1.67 3.675 1.336 6.236 1.559 8.129.111.557.445.557.891.111.78-.668 2.227-2.116 3.563-3.786.668 2.45.445 4.232.668 5.679.111.557.445.557.891.111.78-.668 2.227-2.116 3.563-3.786.445 3.341-.445 5.457-.668 7.016-.111.557.334.557.78.334.891-.445 2.673-1.559 4.232-2.784.557 3.341-.223 5.457-.445 7.016-.111.557.334.557.78.334.78-.334 2.004-1.225 3.341-2.116 0 .111.111.223.111.334.557 3.118-.223 5.011-.445 6.459-.111.445.223.445.668.223s1.336-.78 2.227-1.336c-.111 1.67-.445 2.784-.557 3.786-.111.445.223.445.668.223.334-.223.891-.557 1.559-.891 0 .111.111.223.111.334.223 1.336-.111 2.45-.223 3.341-.111.445.223.445.668.223.334-.111.668-.445 1.225-.668l1.336 3.675c.445 1.448-1.002 2.561-1.893 1.559z" fill="#47abff"/><path d="M149.37 55.148l5.561 5.012c-3.681 4.073-8.928 5.874-14.802 5.874-11.121 0-20.128-8.537-20.128-20.05s9.007-20.128 20.128-20.128c5.874 0 11.121 1.801 14.802 5.874l-5.561 5.012c-2.271-3.054-5.561-4.229-9.242-4.229-6.657 0-12.061 5.561-12.061 13.471 0 7.832 5.404 13.471 12.061 13.471 3.681 0 6.97-1.175 9.242-4.308zm49.89-9.163v2.898h-30.466c0 7.127 6.814 10.573 11.826 10.573 3.681 0 7.754-1.958 9.947-5.091l5.561 5.012c-2.585 3.524-6.814 6.657-15.507 6.657-12.531 0-20.206-8.537-20.206-20.05s7.44-20.128 19.423-20.128 17.465 6.657 19.11 16.369c.235 1.253.313 2.506.313 3.759zm-30.31-3.759h21.851c0-6.266-5.012-9.712-10.965-9.712s-10.886 3.994-10.886 9.712zm54.745 23.026h-4.934l-16.369-38.69h8.145l10.651 27.02 10.651-27.02h8.067zm30.466-38.69v38.69h-8.067v-38.69h8.067zm.392-14.176a4.41 4.41 0 0 1-4.464 4.464c-2.428 0-4.386-1.958-4.386-4.464A4.38 4.38 0 0 1 250.089 8c2.506 0 4.464 1.958 4.464 4.386zm42.841 14.176l-13.706 19.345 13.706 19.345h-9.242l-8.615-12.923-8.693 12.923h-9.242l13.784-19.345-13.784-19.345h9.242l8.693 12.923 8.615-12.923h9.242zM340 45.985v2.898h-30.466c0 7.127 6.814 10.573 11.826 10.573 3.681 0 7.754-1.958 9.947-5.091l5.561 5.012c-2.585 3.524-6.814 6.657-15.507 6.657-12.531 0-20.206-8.537-20.206-20.05s7.44-20.128 19.423-20.128 17.465 6.657 19.11 16.369c.235 1.253.313 2.506.313 3.759zm-30.31-3.759h21.851c0-6.266-5.012-9.712-10.965-9.712s-10.886 3.994-10.886 9.712zM128.467 83.675c.047.109.419 1.165-.062 2.268-.559 1.321-2.128 2.144-4.086 2.159-1.693 0-3.231-.746-4.319-1.926l1.15-1.15c.544.963 1.926 1.647 3.169 1.647 1.352-.016 2.144-.513 2.47-1.289.249-.575.047-1.196.031-1.212-.326-.901-1.227-1.103-2.501-1.491-1.445-.435-3.107-.792-3.651-2.315-.295-.792-.217-1.709.186-2.455.901-1.709 3.2-1.756 3.464-1.756 1.709 0 3.231.746 4.319 1.942l-1.134 1.134c-.637-.932-1.88-1.647-3.185-1.647-.016 0-1.383 0-1.911.994-.202.388-.249.901-.109 1.305.311.854 1.196 1.056 2.439 1.429 1.476.451 3.138.792 3.729 2.361zm9.446.451v.575h-6.043c0 1.414 1.352 2.097 2.346 2.097.73 0 1.538-.388 1.973-1.01l1.103.994c-.513.699-1.352 1.321-3.076 1.321-2.486 0-4.008-1.693-4.008-3.977s1.476-3.993 3.853-3.993 3.464 1.321 3.791 3.247c.047.249.062.497.062.746zm-6.012-.746h4.334c0-1.243-.994-1.926-2.175-1.926s-2.159.792-2.159 1.926zm12.18-3.014l-.342 1.258c-.109-.062-.451-.171-.73-.171-1.321 0-1.942 1.258-1.942 2.812v3.682h-1.6v-7.675h1.6v1.087c.186-.715 1.01-1.227 1.926-1.227.419 0 .87.109 1.087.233zm4.226 7.581h-.979l-3.247-7.675h1.616l2.113 5.36 2.113-5.36h1.6zm11.45-3.822v.575h-6.043c0 1.414 1.352 2.097 2.346 2.097.73 0 1.538-.388 1.973-1.01l1.103.994c-.513.699-1.352 1.321-3.076 1.321-2.486 0-4.008-1.693-4.008-3.977s1.476-3.993 3.853-3.993 3.464 1.321 3.791 3.247c.047.249.062.497.062.746zm-6.012-.746h4.334c0-1.243-.994-1.926-2.175-1.926s-2.159.792-2.159 1.926zm12.18-3.014l-.342 1.258c-.109-.062-.451-.171-.73-.171-1.321 0-1.942 1.258-1.942 2.812v3.682h-1.6v-7.675h1.6v1.087c.186-.715 1.01-1.227 1.926-1.227.419 0 .87.109 1.087.233zM168.626 76v11.947h-1.616V76h1.616zm9.57 8.125v.575h-6.043c0 1.414 1.352 2.097 2.346 2.097.73 0 1.538-.388 1.973-1.01l1.103.994c-.513.699-1.352 1.321-3.076 1.321-2.486 0-4.008-1.693-4.008-3.977s1.476-3.993 3.853-3.993 3.464 1.321 3.791 3.247c.047.249.062.497.062.746zm-6.012-.746h4.334c0-1.243-.994-1.926-2.175-1.926s-2.159.792-2.159 1.926zm12.957 1.585c.031.093.295.854-.031 1.631-.404.917-1.476 1.507-2.812 1.507h-.016c-1.072 0-2.051-.451-2.781-1.165l1.041-1.041c.435.559 1.056.839 1.74.839.761 0 1.398-.28 1.569-.684.109-.28.016-.575.016-.606-.186-.466-.87-.559-1.647-.73-1.041-.233-2.082-.497-2.486-1.585-.202-.559-.14-1.212.14-1.756.637-1.196 2.222-1.243 2.408-1.243 1.072 0 2.082.404 2.796 1.134l-1.041 1.041c-.435-.559-1.072-.808-1.756-.808-.016 0-.932.016-1.196.528-.093.155-.14.419-.062.637.155.435.854.575 1.6.746 1.01.233 2.113.466 2.517 1.554zm7.302 0c.031.093.295.854-.031 1.631-.404.917-1.476 1.507-2.812 1.507h-.016c-1.072 0-2.051-.451-2.781-1.165l1.041-1.041c.435.559 1.056.839 1.74.839.761 0 1.398-.28 1.569-.684.109-.28.016-.575.016-.606-.186-.466-.87-.559-1.647-.73-1.041-.233-2.082-.497-2.486-1.585-.202-.559-.14-1.212.14-1.756.637-1.196 2.222-1.243 2.408-1.243 1.072 0 2.082.404 2.796 1.134l-1.041 1.041c-.435-.559-1.072-.808-1.756-.808-.016 0-.932.016-1.196.528-.093.155-.14.419-.062.637.155.435.854.575 1.6.746 1.01.233 2.113.466 2.517 1.554zm14.774-7.24h-6.012v3.635h4.925v1.429h-4.925v5.158h-1.724V76.295h7.737v1.429zm6.323 2.641l-.342 1.258c-.109-.062-.451-.171-.73-.171-1.321 0-1.942 1.258-1.942 2.812v3.682h-1.6v-7.675h1.6v1.087c.186-.715 1.01-1.227 1.926-1.227.419 0 .87.109 1.087.233zm4.21-.249c2.206 0 3.092 1.336 3.092 2.47v5.36h-1.6v-.839c-.559.761-1.554.979-2.175.979-1.756 0-2.905-1.025-2.905-2.392 0-1.911 1.429-2.594 2.905-2.594h2.175v-.513c0-.482-.186-1.15-1.491-1.15-.73 0-1.398.388-1.833.994l-1.103-.994c.73-.808 1.771-1.321 2.936-1.321zm1.491 5.437v-1.15h-1.957c-.948 0-1.616.482-1.507 1.352.093.73.684 1.025 1.507 1.025 1.476 0 1.957-.699 1.957-1.227zm10.424-2.035v4.428h-1.616l.016-.062v-4.21c0-1.554-.404-2.237-1.724-2.237-1.491 0-2.02 1.041-2.02 2.392v4.117h-1.6v-7.675h1.6v1.243c.217-.684 1.103-1.305 2.02-1.367 1.507-.109 2.579.388 3.06 1.631.326-1.056 1.367-1.569 2.268-1.631 2.082-.155 3.325.854 3.325 3.371v4.428h-1.6v-4.272c0-1.554-.404-2.237-1.724-2.237-1.336 0-1.895.839-2.004 2.082zm14.339.606v.575h-6.043c0 1.414 1.352 2.097 2.346 2.097.73 0 1.538-.388 1.973-1.01l1.103.994c-.513.699-1.352 1.321-3.076 1.321-2.486 0-4.008-1.693-4.008-3.977s1.476-3.993 3.853-3.993 3.464 1.321 3.791 3.247c.047.249.062.497.062.746zm-6.012-.746h4.334c0-1.243-.994-1.926-2.175-1.926s-2.159.792-2.159 1.926zm16.809-3.107h1.6l-2.921 7.675h-.979l-1.911-4.971-1.895 4.971h-.979l-2.936-7.675h1.616l1.818 5.36 1.6-4.723.202-.637h1.15l.217.637 1.6 4.723zm6.37 1.181c-1.321 0-2.392 1.103-2.392 2.672 0 1.554 1.072 2.672 2.392 2.672s2.392-1.119 2.392-2.672c0-1.569-1.072-2.672-2.392-2.672zm0-1.321a3.94 3.94 0 0 1 3.993 3.993c0 2.284-1.787 3.977-3.993 3.977s-3.993-1.693-3.993-3.977a3.94 3.94 0 0 1 3.993-3.993zm10.316.233l-.342 1.258c-.109-.062-.451-.171-.73-.171-1.321 0-1.942 1.258-1.942 2.812v3.682h-1.6v-7.675h1.6v1.087c.186-.715 1.01-1.227 1.926-1.227.419 0 .87.109 1.087.233zm6.447 7.581l-2.905-3.713-.839.715v2.998h-1.616V76.295h1.616v6.665l3.092-2.688h2.486l-3.573 2.983L280 87.947h-2.066z" fill="#fff"/></svg>